<?xml version="1.0" encoding="utf-8"?>
<!-- Generator: Adobe Illustrator 26.0.1, SVG Export Plug-In . SVG Version: 6.00 Build 0)  -->
<svg version="1.1" xmlns="http://www.w3.org/2000/svg" xmlns:xlink="http://www.w3.org/1999/xlink" x="0px" y="0px"
	 viewBox="0 0 500 500" style="enable-background:new 0 0 500 500;" xml:space="preserve">
<style type="text/css">
	.st0{fill:#F7F8F8;}
	.st1{fill:none;stroke:#231815;stroke-width:20;stroke-miterlimit:10;}
</style>
<g id="레이어_2">
	<path class="st0" d="M450,500H50c-27.61,0-50-22.39-50-50V50C0,22.39,22.39,0,50,0h400c27.61,0,50,22.39,50,50v400
		C500,477.61,477.61,500,450,500z"/>
</g>
<g id="logo">
	<line id="_x5F_" class="st1" x1="44.82" y1="404.27" x2="194.75" y2="404.27"/>
	<path id="h" class="st1" d="M263.15,85.48v326.94l0.07-104.12c0,0-0.42-34.09,8.45-53.74c12.09-26.8,27.14-43.69,48.3-54.56
		c21.17-10.87,57.91-15.64,84.23-0.39c28.16,16.31,34.74,42.2,37.52,51.26c2.91,9.51,3.5,28.54,3.5,37.48s0,124.08,0,124.08"/>
</g>
</svg>
