<svg width="160" height="264" viewBox="0 0 160 264" fill="none" xmlns="http://www.w3.org/2000/svg">
<path d="M4 183.866H0V187.864V191.861H6.56H104C107.04 191.861 110 191.781 112.8 191.621C124.72 190.502 135.44 185.465 143.6 177.711C134 181.228 121.28 183.866 104 183.866H4Z" fill="url(#paint0_linear_1256_21060)"/>
<path d="M4 167.158H0V171.156V175.153H6.56H104C126.64 175.153 142.16 170.996 153.12 165.72C155.28 161.962 157.04 157.885 158.16 153.568C148.24 160.283 132.08 167.079 104 167.079H4V167.158Z" fill="url(#paint1_linear_1256_21060)"/>
<path d="M159.84 135.742C150.16 142.857 133.76 150.451 104 150.451H4H0V154.448V158.445H6.56H104C131.6 158.445 148.72 152.21 159.68 145.495C159.84 143.656 160 141.817 160 139.899C160 138.46 159.92 137.101 159.84 135.742Z" fill="url(#paint2_linear_1256_21060)"/>
<path d="M6.56 7.99421H104C112.96 7.99421 120.72 7.35467 127.6 6.23548C120.64 2.23838 112.56 0 104 0H6.56H4H0V3.9971V7.99421H4H6.56Z" fill="url(#paint3_linear_1256_21060)"/>
<path d="M6.56 24.7014H104C120.16 24.7014 132.72 22.543 142.56 19.4252C140.8 17.027 138.8 14.7886 136.64 12.79C128.08 15.1084 117.36 16.7072 104 16.7072H6.56H4H0V20.7043V24.7014H4H6.56Z" fill="url(#paint4_linear_1256_21060)"/>
<path d="M6.56 41.4099H104C124.4 41.4099 139.04 37.9724 149.76 33.4956C148.96 30.9375 147.92 28.4593 146.72 26.061C136.8 30.218 123.2 33.4157 104 33.4157H4H0V37.4128V41.4099H6.56Z" fill="url(#paint5_linear_1256_21060)"/>
<path d="M6.56 58.1186H104C125.84 58.1186 141.12 54.2015 152 49.2451C152 48.8454 152 48.3657 152 47.966C152 45.4878 151.84 43.0096 151.44 40.6113C141.36 45.8076 126.48 50.2044 104 50.2044H4H0V54.2015V58.1986L6.56 58.1186Z" fill="url(#paint6_linear_1256_21060)"/>
<path d="M6.56 74.8259H104C123.12 74.8259 137.2 71.7881 147.76 67.7111C149.2 64.4335 150.32 60.996 151.04 57.4785C140.96 62.5948 126.16 66.8317 104 66.8317H4H0V70.8288V74.8259H6.56Z" fill="url(#paint7_linear_1256_21060)"/>
<path d="M6.56 91.5336H104C112.8 91.5336 120.56 90.894 127.36 89.7748C132.64 86.817 137.28 82.8998 141.12 78.2632C131.84 81.3809 119.76 83.5394 104 83.5394H4H0V87.5365V91.5336H6.56Z" fill="url(#paint8_linear_1256_21060)"/>
<path d="M6.56 108.321H104C121.04 108.321 134 105.923 144.08 102.565C141.76 100.327 139.2 98.2485 136.48 96.4897C127.92 98.8081 117.28 100.327 104 100.327H4H0V104.324V108.321H6.56Z" fill="url(#paint9_linear_1256_21060)"/>
<path d="M6.56 125.029H104C127.04 125.029 142.8 120.632 153.76 115.276C152.48 112.878 150.96 110.639 149.36 108.481C139.28 113.198 124.96 117.035 104 117.035H4H0V121.032V125.029H6.56Z" fill="url(#paint10_linear_1256_21060)"/>
<path d="M6.56 141.737H104C130.96 141.737 147.84 135.821 158.88 129.266C158.32 126.548 157.52 123.83 156.56 121.272C146.56 127.667 130.64 133.743 104 133.743H4H0V137.74V141.737H6.56Z" fill="url(#paint11_linear_1256_21060)"/>
<path d="M4.08 183.867H4H0V191.861H3.84C3.92 191.861 3.92 191.861 4 191.861C4 191.861 4 191.861 4.08 191.861H4.16C6.4 191.861 8.16 190.022 8.08 187.784C8.08 185.625 6.24 183.867 4.08 183.867Z" fill="url(#paint12_linear_1256_21060)"/>
<path d="M6.48 167.159H4C4 167.159 4 167.159 3.92 167.159H0V175.153H3.84C3.92 175.153 3.92 175.153 4 175.153H6.48C8.72 175.153 10.48 173.394 10.48 171.156C10.48 168.917 8.72 167.159 6.48 167.159Z" fill="url(#paint13_linear_1256_21060)"/>
<path d="M13.04 150.451H4C4 150.451 4 150.451 3.92 150.451H0V158.445H3.84C3.92 158.445 3.92 158.445 4 158.445H13.04C15.28 158.445 17.04 156.686 17.04 154.448C17.04 152.209 15.28 150.451 13.04 150.451Z" fill="url(#paint14_linear_1256_21060)"/>
<path d="M25.44 133.743H4C4 133.743 4 133.743 3.92 133.743H0V141.737H3.92H4H25.44C27.68 141.737 29.44 139.979 29.44 137.74C29.44 135.502 27.68 133.743 25.44 133.743Z" fill="url(#paint15_linear_1256_21060)"/>
<path d="M47.6 117.035H4C4 117.035 4 117.035 3.92 117.035H0V125.029H3.92H4H47.6C49.84 125.029 51.6 123.27 51.6 121.032C51.6 118.793 49.76 117.035 47.6 117.035Z" fill="url(#paint16_linear_1256_21060)"/>
<path d="M92.8 100.328H4C4 100.328 4 100.328 3.92 100.328H0V108.322H3.92H4H92.8C95.04 108.322 96.8 106.563 96.8 104.325C96.8 102.086 95.04 100.328 92.8 100.328Z" fill="url(#paint17_linear_1256_21060)"/>
<path d="M113.68 83.2986C110.4 83.4585 107.2 83.6184 104 83.6184H4C4 83.6184 4 83.6184 3.92 83.6184H0V91.6126H3.92H4H104C107.44 91.6126 110.72 91.5327 114.16 91.2928C116.4 91.133 118.08 89.2943 117.92 87.0559C117.84 84.8175 115.92 83.1387 113.68 83.2986Z" fill="url(#paint18_linear_1256_21060)"/>
<path d="M4 74.8257H59.44C61.68 74.8257 63.44 73.067 63.44 70.8286C63.44 68.5903 61.68 66.8315 59.44 66.8315H4C4 66.8315 4 66.8315 3.92 66.8315H0V74.8257H4Z" fill="url(#paint19_linear_1256_21060)"/>
<path d="M3.92 7.99421C4 7.99421 4 7.99421 3.92 7.99421C4 7.99421 4 7.99421 4.08 7.99421H4.24C6.48 7.99421 8.24 6.15554 8.16 3.91716C8.16 1.75873 6.32 0 4.16 0C4.16 0 4.16 0 4.08 0H3.92H0V7.99421H3.92Z" fill="url(#paint20_linear_1256_21060)"/>
<path d="M3.92 24.7027C4 24.7027 4 24.7027 3.92 24.7027H7.44C9.68 24.7027 11.44 22.944 11.44 20.7056C11.44 18.4672 9.68 16.7085 7.44 16.7085H4C4 16.7085 4 16.7085 3.92 16.7085H0V24.7027H3.92Z" fill="url(#paint21_linear_1256_21060)"/>
<path d="M3.92 41.4097C4 41.4097 4 41.4097 3.92 41.4097H16.16C18.4 41.4097 20.16 39.651 20.16 37.4126C20.16 35.1743 18.4 33.4155 16.16 33.4155H4C4 33.4155 4 33.4155 3.92 33.4155H0V41.4097H3.92Z" fill="url(#paint22_linear_1256_21060)"/>
<path d="M3.92 58.1178C4 58.1178 4 58.1178 3.92 58.1178H31.92C34.16 58.1178 35.92 56.359 35.92 54.1206C35.92 51.8823 34.16 50.1235 31.92 50.1235H4C4 50.1235 4 50.1235 3.92 50.1235H0V58.1178H3.92Z" fill="url(#paint23_linear_1256_21060)"/>
<path d="M0 218.483H3.12V230.874H0V218.483ZM9.28 233.992H3.12V230.874H9.36V233.992H9.28ZM9.28 218.483H12.4V230.874H9.28V218.483Z" fill="black"/>
<path d="M16 233.991V218.482H19.12V233.991H16ZM19.12 221.6H22.24V224.717H19.12V221.6ZM22.24 224.717H25.36V227.835H22.24V224.717ZM25.28 227.835H28.4V230.953H25.28V227.835ZM28.4 233.991V218.482H31.52V233.991H28.4Z" fill="black"/>
<path d="M38.2391 233.991V221.6H35.1191V218.482H44.3991V221.6H41.2791V233.991H38.2391Z" fill="black"/>
<path d="M48 233.991V218.482H51.12V224.717H57.36V218.482H60.48V233.991H57.36V227.835H51.12V234.071H48V233.991Z" fill="black"/>
<path d="M64 227.835V218.562H67.12V227.835H64ZM64 230.873H67.12V233.991H64V230.873Z" fill="url(#paint24_linear_1256_21060)"/>
<path d="M70.7207 233.991V218.482H73.8407V233.991H70.7207ZM73.7607 221.6H76.8807V224.717H73.7607V221.6ZM76.8807 224.717H80.0007V227.835H76.8807V224.717ZM80.0007 227.835H83.1207V230.953H80.0007V227.835ZM83.1207 233.991V218.482H86.2407V233.991H83.1207Z" fill="black"/>
<path d="M92.8798 227.835V234.071H89.7598V218.562H92.8798V224.797H95.9998V227.915H92.8798V227.835ZM95.9998 221.6H99.1198V224.717H95.9998V221.6ZM95.9998 227.835H99.1198V230.953H95.9998V227.835ZM99.1198 218.482H102.24V221.6H99.1198V218.482ZM99.1198 230.873H102.24V233.991H99.1198V230.873Z" fill="black"/>
<path d="M105.84 233.991V221.6H108.96V224.717H115.2V221.6H118.32V233.991H115.2V227.835H108.96V234.071H105.84V233.991ZM108.96 218.482V221.6H115.2V218.482H108.96Z" fill="black"/>
<path d="M131.12 221.6H124.88V224.718H131.12V227.835H124.88V230.953H131.12V234.071H121.84V218.562H131.12V221.6ZM134.24 221.6V224.718H131.12V221.6H134.24ZM134.24 227.835V230.953H131.12V227.835H134.24Z" fill="black"/>
<path d="M140.88 230.873H147.12V233.991H137.84V218.482H140.96V230.873H140.88Z" fill="black"/>
<path d="M160.001 221.6H153.761V224.718H160.001V227.835H153.761V230.953H160.001V234.071H150.721V218.562H160.001V221.6Z" fill="black"/>
<path d="M3.12 254.297H0V245.024H3.12V254.297ZM9.28 245.024H3.12V241.906H9.36V245.024H9.28ZM9.28 257.415H3.12V254.297H9.36V257.415H9.28ZM12.4 254.297H9.28V245.024H12.4V254.297ZM9.28 257.415H12.4V260.532H9.28V257.415Z" fill="url(#paint25_linear_1256_21060)"/>
<path d="M16 241.905H19.12V254.296H16V241.905ZM25.28 257.414H19.04V254.296H25.28V257.414ZM25.28 241.905H28.4V254.296H25.28V241.905Z" fill="black"/>
<path d="M41.28 245.023H35.04V248.141H41.28V251.259H35.04V254.376H41.28V257.494H32V241.985H41.28V245.023Z" fill="black"/>
<path d="M44.8789 245.023H47.9989V248.141H44.8789V245.023ZM44.8789 257.414V254.296H54.1589V257.414H44.8789ZM47.9989 245.023V241.905H57.2789V245.023H47.9989ZM47.9989 251.179H54.2389V248.061H47.9989V251.179ZM54.2389 251.179H57.3589V254.296H54.2389V251.179Z" fill="black"/>
<path d="M64.0009 257.414V245.023H60.8809V241.905H70.1609V245.023H67.0409V257.414H64.0009Z" fill="black"/>
<path d="M73.7598 257.414V241.905H76.8798V257.414H73.7598Z" fill="black"/>
<path d="M83.6005 254.296H80.4805V245.023H83.6005V254.296ZM89.7605 245.023H83.5205V241.905H89.7605V245.023ZM89.7605 257.414H83.5205V254.296H89.7605V257.414ZM92.8805 254.296H89.7605V245.023H92.8805V254.296Z" fill="black"/>
<path d="M96.4805 257.414V241.905H99.6005V257.414H96.4805ZM99.6005 245.023H102.72V248.141H99.6005V245.023ZM102.72 248.141H105.84V251.259H102.72V248.141ZM105.76 251.179H108.88V254.296H105.76V251.179ZM108.88 257.414V241.905H112V257.414H108.88Z" fill="black"/>
<defs>
<linearGradient id="paint0_linear_1256_21060" x1="-46.8898" y1="36.531" x2="93.4517" y2="212.085" gradientUnits="userSpaceOnUse">
<stop stop-color="#FFD200"/>
<stop offset="1" stop-color="#00AAFF"/>
</linearGradient>
<linearGradient id="paint1_linear_1256_21060" x1="-32.4869" y1="25.0172" x2="107.854" y2="200.571" gradientUnits="userSpaceOnUse">
<stop stop-color="#FFCB00"/>
<stop offset="1" stop-color="#00B0F1"/>
</linearGradient>
<linearGradient id="paint2_linear_1256_21060" x1="-23.5281" y1="17.8559" x2="116.813" y2="193.41" gradientUnits="userSpaceOnUse">
<stop stop-color="#FFCB00"/>
<stop offset="1" stop-color="#00B0F1"/>
</linearGradient>
<linearGradient id="paint3_linear_1256_21060" x1="34.977" y1="-28.9146" x2="175.318" y2="146.639" gradientUnits="userSpaceOnUse">
<stop stop-color="#FFCB00"/>
<stop offset="1" stop-color="#00B0F1"/>
</linearGradient>
<linearGradient id="paint4_linear_1256_21060" x1="32.2432" y1="-26.7299" x2="172.584" y2="148.824" gradientUnits="userSpaceOnUse">
<stop stop-color="#FFCB00"/>
<stop offset="1" stop-color="#00B0F1"/>
</linearGradient>
<linearGradient id="paint5_linear_1256_21060" x1="27.7868" y1="-23.1666" x2="168.128" y2="152.387" gradientUnits="userSpaceOnUse">
<stop stop-color="#FFCB00"/>
<stop offset="1" stop-color="#00B0F1"/>
</linearGradient>
<linearGradient id="paint6_linear_1256_21060" x1="21.6056" y1="-18.2244" x2="161.947" y2="157.329" gradientUnits="userSpaceOnUse">
<stop stop-color="#FFCB00"/>
<stop offset="1" stop-color="#00B0F1"/>
</linearGradient>
<linearGradient id="paint7_linear_1256_21060" x1="13.2789" y1="-11.5685" x2="153.62" y2="163.985" gradientUnits="userSpaceOnUse">
<stop stop-color="#FFCB00"/>
<stop offset="1" stop-color="#00B0F1"/>
</linearGradient>
<linearGradient id="paint8_linear_1256_21060" x1="1.10256" y1="-1.83479" x2="141.444" y2="173.719" gradientUnits="userSpaceOnUse">
<stop stop-color="#FFCB00"/>
<stop offset="1" stop-color="#00B0F1"/>
</linearGradient>
<linearGradient id="paint9_linear_1256_21060" x1="-7.9848" y1="5.42958" x2="132.357" y2="180.983" gradientUnits="userSpaceOnUse">
<stop stop-color="#FFCB00"/>
<stop offset="1" stop-color="#00B0F1"/>
</linearGradient>
<linearGradient id="paint10_linear_1256_21060" x1="-11.902" y1="8.56106" x2="128.439" y2="184.115" gradientUnits="userSpaceOnUse">
<stop stop-color="#FFCB00"/>
<stop offset="1" stop-color="#00B0F1"/>
</linearGradient>
<linearGradient id="paint11_linear_1256_21060" x1="-16.9229" y1="12.5752" x2="123.418" y2="188.129" gradientUnits="userSpaceOnUse">
<stop stop-color="#FFCB00"/>
<stop offset="1" stop-color="#00B0F1"/>
</linearGradient>
<linearGradient id="paint12_linear_1256_21060" x1="4.04816" y1="221.532" x2="4.04816" y2="-23.9212" gradientUnits="userSpaceOnUse">
<stop stop-color="#FFCB00"/>
<stop offset="1" stop-color="#00B0F1"/>
</linearGradient>
<linearGradient id="paint13_linear_1256_21060" x1="5.25392" y1="221.532" x2="5.25392" y2="-23.9199" gradientUnits="userSpaceOnUse">
<stop stop-color="#FFD200"/>
<stop offset="1" stop-color="#00AAFF"/>
</linearGradient>
<linearGradient id="paint14_linear_1256_21060" x1="8.51952" y1="221.533" x2="8.51952" y2="-23.9231" gradientUnits="userSpaceOnUse">
<stop stop-color="#FFCB00"/>
<stop offset="1" stop-color="#00B0F1"/>
</linearGradient>
<linearGradient id="paint15_linear_1256_21060" x1="14.7246" y1="221.532" x2="14.7246" y2="-23.9202" gradientUnits="userSpaceOnUse">
<stop stop-color="#FFCB00"/>
<stop offset="1" stop-color="#00B0F1"/>
</linearGradient>
<linearGradient id="paint16_linear_1256_21060" x1="25.7894" y1="221.532" x2="25.7894" y2="-23.9217" gradientUnits="userSpaceOnUse">
<stop stop-color="#FFCB00"/>
<stop offset="1" stop-color="#00B0F1"/>
</linearGradient>
<linearGradient id="paint17_linear_1256_21060" x1="48.3996" y1="221.532" x2="48.3996" y2="-23.9208" gradientUnits="userSpaceOnUse">
<stop stop-color="#FFCB00"/>
<stop offset="1" stop-color="#00B0F1"/>
</linearGradient>
<linearGradient id="paint18_linear_1256_21060" x1="58.9741" y1="221.532" x2="58.9741" y2="-23.9226" gradientUnits="userSpaceOnUse">
<stop stop-color="#FFCB00"/>
<stop offset="1" stop-color="#00B0F1"/>
</linearGradient>
<linearGradient id="paint19_linear_1256_21060" x1="31.711" y1="221.532" x2="31.711" y2="-23.9213" gradientUnits="userSpaceOnUse">
<stop stop-color="#FFCB00"/>
<stop offset="1" stop-color="#00B0F1"/>
</linearGradient>
<linearGradient id="paint20_linear_1256_21060" x1="4.06264" y1="221.532" x2="4.06264" y2="-23.9213" gradientUnits="userSpaceOnUse">
<stop stop-color="#FFCB00"/>
<stop offset="1" stop-color="#00B0F1"/>
</linearGradient>
<linearGradient id="paint21_linear_1256_21060" x1="5.74216" y1="221.533" x2="5.74216" y2="-23.9207" gradientUnits="userSpaceOnUse">
<stop stop-color="#FFCB00"/>
<stop offset="1" stop-color="#00B0F1"/>
</linearGradient>
<linearGradient id="paint22_linear_1256_21060" x1="10.0894" y1="221.532" x2="10.0894" y2="-23.9216" gradientUnits="userSpaceOnUse">
<stop stop-color="#FFCB00"/>
<stop offset="1" stop-color="#00B0F1"/>
</linearGradient>
<linearGradient id="paint23_linear_1256_21060" x1="17.984" y1="221.532" x2="17.984" y2="-23.9216" gradientUnits="userSpaceOnUse">
<stop stop-color="#FFCB00"/>
<stop offset="1" stop-color="#00B0F1"/>
</linearGradient>
<linearGradient id="paint24_linear_1256_21060" x1="63.8785" y1="217.901" x2="67.1673" y2="234.357" gradientUnits="userSpaceOnUse">
<stop stop-color="#FFD200"/>
<stop offset="1" stop-color="#00AAFF"/>
</linearGradient>
<linearGradient id="paint25_linear_1256_21060" x1="0.53456" y1="241.812" x2="13.284" y2="259.509" gradientUnits="userSpaceOnUse">
<stop stop-color="#FFD200"/>
<stop offset="1" stop-color="#00AAFF"/>
</linearGradient>
</defs>
</svg>
