<svg width="34" height="34" viewBox="0 0 34 34" fill="none" xmlns="http://www.w3.org/2000/svg">
<path d="M34 17C34 7.61093 26.3883 0 17 0C7.61175 0 0 7.61093 0 17C0 25.102 5.6615 31.8719 13.2471 33.5848V27.8605C12.8961 27.9715 12.5305 28.0295 12.1623 28.0326C10.7431 28.0326 10.0963 27.2985 8.80588 25.8393C7.74552 24.6338 7.32301 24.6338 6.91762 24.6338V22.6762C7.97146 22.6762 8.89968 22.9886 10.2733 24.544C11.5122 25.947 11.6713 26.075 12.1623 26.075C12.5897 26.075 13.0555 25.8532 13.3108 25.7007C13.4705 24.8211 13.9264 24.0226 14.6028 23.438C11.6468 22.9445 7.25367 21.3279 7.25367 16.0237C7.25367 13.9731 7.97064 12.4535 9.01795 11.3263C8.33524 9.17292 9.34421 7.07341 9.34421 7.07341C11.4706 7.20636 13.0465 8.58972 13.2887 8.81403C15.818 8.02282 18.5286 8.02282 21.0579 8.81403C21.3026 8.58972 22.876 7.20636 25.0024 7.07341C25.0024 7.07341 26.009 9.17292 25.3287 11.3263C26.376 12.4535 27.093 13.9731 27.093 16.0237C27.093 21.3254 22.6998 22.9445 19.7439 23.438C20.1696 23.8058 20.511 24.261 20.745 24.7727C20.9789 25.2843 21.0998 25.8404 21.0995 26.4029V33.5033C28.5 31.6713 34 24.978 34 17Z" fill="black"/>
</svg>
