<svg width="34" height="34" viewBox="0 0 34 34" fill="none" xmlns="http://www.w3.org/2000/svg">
<path fill-rule="evenodd" clip-rule="evenodd" d="M17 34C26.3888 34 34 26.3888 34 17C34 7.61116 26.3888 0 17 0C7.61116 0 0 7.61116 0 17C0 26.3888 7.61116 34 17 34ZM9.81326 23.9643H12.8803V14.2219H9.81326V23.9643ZM10.3689 12.5701C10.6572 12.7649 10.9968 12.8698 11.3447 12.8718C11.5776 12.8766 11.8091 12.8344 12.0253 12.7478C12.2416 12.6612 12.4382 12.532 12.6034 12.3678C12.7687 12.2036 12.8992 12.0078 12.9872 11.7921C13.0751 11.5764 13.1188 11.3452 13.1155 11.1123C13.1158 10.7644 13.013 10.4242 12.8201 10.1346C12.6272 9.8451 12.3529 9.61918 12.0317 9.48539C11.7106 9.35161 11.357 9.31596 11.0156 9.38295C10.6742 9.44993 10.3602 9.61655 10.1134 9.86177C9.86664 10.107 9.69802 10.4198 9.62884 10.7608C9.55966 11.1018 9.59304 11.4556 9.72476 11.7776C9.85648 12.0996 10.0806 12.3754 10.3689 12.5701ZM21.1197 23.9728H24.1853L24.1868 17.9463C24.1868 14.9713 22.338 13.9556 20.6267 13.9556C19.0443 13.9556 18.0073 14.9798 17.7112 15.5791H17.6715V14.229H14.722V23.9728H17.7891V18.6901C17.7891 17.2819 18.6816 16.5962 19.5911 16.5962C20.4524 16.5962 21.1197 17.0807 21.1197 18.6504V23.9728Z" fill="black"/>
</svg>
