<svg width="34" height="34" viewBox="0 0 34 34" fill="none" xmlns="http://www.w3.org/2000/svg">
<path fill-rule="evenodd" clip-rule="evenodd" d="M17 34C26.3888 34 34 26.3888 34 17C34 7.61116 26.3888 0 17 0C7.61116 0 0 7.61116 0 17C0 26.3888 7.61116 34 17 34ZM22.9759 12.2297C23.63 12.4116 24.1511 12.9459 24.3285 13.628C24.65 14.8558 24.65 17.425 24.65 17.425C24.65 17.425 24.65 19.9942 24.3285 21.222C24.1511 21.9041 23.63 22.4384 22.9759 22.6203C21.7896 22.95 17 22.95 17 22.95C17 22.95 12.2215 22.95 11.0241 22.6203C10.37 22.4384 9.84891 21.9041 9.67152 21.222C9.35 19.9942 9.35 17.425 9.35 17.425C9.35 17.425 9.35 14.8558 9.67152 13.628C9.84891 12.9459 10.37 12.4116 11.0241 12.2297C12.2104 11.9 17 11.9 17 11.9C17 11.9 21.7785 11.9 22.9759 12.2297ZM19.4391 17.425L15.4367 15.0945V19.7555L19.4391 17.425Z" fill="black"/>
</svg>
