<svg width="34" height="34" viewBox="0 0 34 34" fill="none" xmlns="http://www.w3.org/2000/svg">
<path fill-rule="evenodd" clip-rule="evenodd" d="M34 17C34 7.61115 26.3888 0 17 0C7.61115 0 0 7.61115 0 17C0 25.4851 6.21662 32.5181 14.3438 33.7935C16.1039 34.0688 17.8961 34.0688 19.6562 33.7935C27.7834 32.5181 34 25.4851 34 17ZM21.1219 14.9369L20.6373 17.9903H18.0906V25.3717C16.959 25.5428 15.8067 25.5428 14.6751 25.3717V17.9903H11.9V14.9369H14.6751V12.6097C14.6751 9.96233 16.3069 8.5 18.8034 8.5C19.9993 8.5 21.25 8.70631 21.25 8.70631V11.3058H19.8718C18.5142 11.3058 18.0906 12.121 18.0906 12.9563V14.9369H21.1219Z" fill="black"/>
</svg>
